<svg width="20" height="20" viewBox="0 0 20 20" fill="none" xmlns="http://www.w3.org/2000/svg">
<path d="M7.57237 0L6.07527 1.45674L8.94127 4.24547V8.14084L5.54591 6.07445L4.63813 2.23139L2.57444 2.69416L3.34574 5.9497L0 6.7002L0.4756 8.70825L4.42308 7.82294L8.00248 10L4.42308 12.1771L0.4756 11.2917L0 13.2998L3.34574 14.0503L2.57444 17.3058L4.63813 17.7686L5.54591 13.9256L8.94127 11.8612V15.7545L6.07527 18.5433L7.57237 20L10 17.6378L12.4276 20L13.9247 18.5433L11.0587 15.7545V11.8612L14.4541 13.9256L15.3619 17.7686L17.4256 17.3058L16.6543 14.0503L20 13.2998L19.5244 11.2917L15.5769 12.1771L11.9975 10L15.5769 7.82294L19.5244 8.70825L20 6.7002L16.6543 5.9497L17.4256 2.69416L15.3619 2.23139L14.4541 6.07445L11.0587 8.14084V4.24547L13.9247 1.45674L12.4276 0L10 2.36217L7.57237 0Z" fill="white"/>
</svg>
