<svg width="24" height="24" viewBox="0 0 24 24" fill="none" xmlns="http://www.w3.org/2000/svg">
<path d="M12 0L11.4 0.600001V12H12.8484L20.484 4.3644V3.516C18.312 1.344 15.312 0 12 0Z" fill="url(#paint0_linear_509_107)"/>
<path d="M20.4852 3.51489L12 12.0001L12.6 12.6001H23.3982L23.9982 12.0001C23.9982 8.9287 22.827 5.85669 20.4852 3.51489Z" fill="url(#paint1_linear_509_107)"/>
<path d="M24 12H12V12.8484L19.6356 20.484H20.484C22.656 18.312 24 15.312 24 12Z" fill="url(#paint2_linear_509_107)"/>
<path d="M20.4852 20.4852L12 12L11.4 12.6V23.3982L12 23.9982C15.0714 23.9982 18.1434 22.827 20.4852 20.4852Z" fill="url(#paint3_linear_509_107)"/>
<path d="M12 24V12H11.1516L3.51599 19.6356V20.484C5.68799 22.656 8.688 24 12 24Z" fill="url(#paint4_linear_509_107)"/>
<path d="M3.51471 20.4853L11.9999 12.0001L11.3999 11.4001H0.60171L0.00170898 12.0001C0.00170898 15.0715 1.17291 18.1435 3.51471 20.4853Z" fill="url(#paint5_linear_509_107)"/>
<path d="M0 12H12V11.1516L4.3644 3.51599H3.516C1.344 5.68799 0 8.688 0 12Z" fill="url(#paint6_linear_509_107)"/>
<path d="M3.51477 3.51483L12 12V0.00183105C8.92858 0.00183105 5.85657 1.17303 3.51477 3.51483Z" fill="url(#paint7_linear_509_107)"/>
<path d="M12 7.19995L11.3976 7.80235V12H12.8484L15.3936 9.45475V8.60635C14.5248 7.73755 13.3248 7.19995 12 7.19995Z" fill="url(#paint8_linear_509_107)"/>
<path d="M15.3942 8.60583L12 12L12.6 12.6H16.1994L16.7994 12C16.7994 10.7712 16.3308 9.54244 15.3942 8.60583Z" fill="url(#paint9_linear_509_107)"/>
<path d="M16.8 12H12V12.8484L14.5452 15.3936H15.3936C16.2624 14.5248 16.8 13.3248 16.8 12Z" fill="url(#paint10_linear_509_107)"/>
<path d="M15.3942 15.3942L12 12L11.4 12.6L11.3976 16.197L12 16.7994C13.2288 16.7994 14.4576 16.3308 15.3942 15.3942Z" fill="url(#paint11_linear_509_107)"/>
<path d="M11.9999 16.8V12H11.1515L8.60632 14.5452V15.3936C9.47512 16.2624 10.6751 16.8 11.9999 16.8Z" fill="url(#paint12_linear_509_107)"/>
<path d="M8.60576 15.3943L12 12.0001L11.4 11.4001H7.80056L7.20056 12.0001C7.20056 13.2289 7.66916 14.4577 8.60576 15.3943Z" fill="url(#paint13_linear_509_107)"/>
<path d="M7.19995 12H12V11.1516L9.45475 8.60645H8.60635C7.73755 9.47525 7.19995 10.6752 7.19995 12Z" fill="url(#paint14_linear_509_107)"/>
<path d="M8.60571 8.60576L11.9999 12V7.20056C10.7711 7.20056 9.54231 7.66916 8.60571 8.60576Z" fill="url(#paint15_linear_509_107)"/>
<defs>
<linearGradient id="paint0_linear_509_107" x1="7.65482" y1="-0.5292" x2="16.1298" y2="7.94521" gradientUnits="userSpaceOnUse">
<stop stop-color="#F44F5A"/>
<stop offset="0.443" stop-color="#EE3D4A"/>
<stop offset="1" stop-color="#E52030"/>
</linearGradient>
<linearGradient id="paint1_linear_509_107" x1="17.997" y1="-2.33861" x2="17.9965" y2="26.2568" gradientUnits="userSpaceOnUse">
<stop stop-color="#FED100"/>
<stop offset="1" stop-color="#E36001"/>
</linearGradient>
<linearGradient id="paint2_linear_509_107" x1="22.242" y1="10.242" x2="15.8178" y2="16.6662" gradientUnits="userSpaceOnUse">
<stop stop-color="#FFD747"/>
<stop offset="0.482" stop-color="#FFD645"/>
<stop offset="1" stop-color="#F5BC00"/>
</linearGradient>
<linearGradient id="paint3_linear_509_107" x1="20.4872" y1="18.0012" x2="11.402" y2="18.0013" gradientUnits="userSpaceOnUse">
<stop stop-color="#33C481"/>
<stop offset="1" stop-color="#21A366"/>
</linearGradient>
<linearGradient id="paint4_linear_509_107" x1="13.758" y1="22.242" x2="7.33379" y2="15.8178" gradientUnits="userSpaceOnUse">
<stop stop-color="#28AFEA"/>
<stop offset="1" stop-color="#0B88DA"/>
</linearGradient>
<linearGradient id="paint5_linear_509_107" x1="6.00202" y1="21.783" x2="6.00218" y2="12.6979" gradientUnits="userSpaceOnUse">
<stop offset="0.002" stop-color="#427FDB"/>
<stop offset="0.397" stop-color="#2668CB"/>
<stop offset="0.763" stop-color="#1358BF"/>
<stop offset="1" stop-color="#0C52BB"/>
</linearGradient>
<linearGradient id="paint6_linear_509_107" x1="1.758" y1="13.758" x2="8.18221" y2="7.33379" gradientUnits="userSpaceOnUse">
<stop stop-color="#A235D4"/>
<stop offset="0.441" stop-color="#A033D1"/>
<stop offset="0.702" stop-color="#982CC9"/>
<stop offset="0.915" stop-color="#8B21BB"/>
<stop offset="1" stop-color="#831BB3"/>
</linearGradient>
<linearGradient id="paint7_linear_509_107" x1="3.51441" y1="6.00509" x2="26.717" y2="6.00511" gradientUnits="userSpaceOnUse">
<stop stop-color="#E83C67"/>
<stop offset="0.423" stop-color="#C5214A"/>
<stop offset="0.773" stop-color="#B01038"/>
<stop offset="1" stop-color="#A80A31"/>
</linearGradient>
<linearGradient id="paint8_linear_509_107" x1="10.0746" y1="6.98215" x2="13.8006" y2="10.7082" gradientUnits="userSpaceOnUse">
<stop stop-color="#FAA7AD"/>
<stop offset="0.443" stop-color="#F79EA5"/>
<stop offset="1" stop-color="#F29098"/>
</linearGradient>
<linearGradient id="paint9_linear_509_107" x1="14.3974" y1="6.0303" x2="14.3972" y2="18.6021" gradientUnits="userSpaceOnUse">
<stop stop-color="#FFE880"/>
<stop offset="1" stop-color="#F1B080"/>
</linearGradient>
<linearGradient id="paint10_linear_509_107" x1="16.0968" y1="11.2968" x2="13.2726" y2="14.121" gradientUnits="userSpaceOnUse">
<stop stop-color="#FFEBA3"/>
<stop offset="0.482" stop-color="#FFEBA2"/>
<stop offset="1" stop-color="#FADE80"/>
</linearGradient>
<linearGradient id="paint11_linear_509_107" x1="15.3959" y1="14.4018" x2="11.3998" y2="14.4023" gradientUnits="userSpaceOnUse">
<stop stop-color="#99E2C0"/>
<stop offset="1" stop-color="#90D1B3"/>
</linearGradient>
<linearGradient id="paint12_linear_509_107" x1="12.7031" y1="16.0968" x2="9.87893" y2="13.2726" gradientUnits="userSpaceOnUse">
<stop stop-color="#94D7F5"/>
<stop offset="1" stop-color="#85C4ED"/>
</linearGradient>
<linearGradient id="paint13_linear_509_107" x1="9.60163" y1="15.9639" x2="9.6017" y2="11.9699" gradientUnits="userSpaceOnUse">
<stop stop-color="#A1BFED"/>
<stop offset="0.002" stop-color="#A1BFED"/>
<stop offset="0.397" stop-color="#93B4E5"/>
<stop offset="0.763" stop-color="#89ACDF"/>
<stop offset="1" stop-color="#86A9DD"/>
</linearGradient>
<linearGradient id="paint14_linear_509_107" x1="7.90315" y1="12.7032" x2="10.7274" y2="9.87905" gradientUnits="userSpaceOnUse">
<stop stop-color="#D19AEA"/>
<stop offset="0.441" stop-color="#D099E8"/>
<stop offset="0.702" stop-color="#CC96E4"/>
<stop offset="0.915" stop-color="#C590DD"/>
<stop offset="1" stop-color="#C18DD9"/>
</linearGradient>
<linearGradient id="paint15_linear_509_107" x1="8.60559" y1="9.60439" x2="17.8868" y2="9.60423" gradientUnits="userSpaceOnUse">
<stop stop-color="#F49EB3"/>
<stop offset="0.423" stop-color="#E290A5"/>
<stop offset="0.773" stop-color="#D8889C"/>
<stop offset="1" stop-color="#D48598"/>
</linearGradient>
</defs>
</svg>
