<svg width="42" height="42" viewBox="0 0 42 42" fill="none" xmlns="http://www.w3.org/2000/svg">
<path d="M16.6547 24V23.28H18.1547V17.22H16.7147V16.5H18.1547V15.54H18.9347V23.28H20.4347V24H16.6547ZM21.3389 22.32V17.28C21.3389 16.736 21.5029 16.3 21.8309 15.972C22.1589 15.644 22.5949 15.48 23.1389 15.48H24.7589C25.3029 15.48 25.7389 15.644 26.0669 15.972C26.3949 16.3 26.5589 16.736 26.5589 17.28V22.32C26.5589 22.864 26.3909 23.3 26.0549 23.628C25.7269 23.956 25.2909 24.12 24.7469 24.12H23.1389C22.5949 24.12 22.1589 23.956 21.8309 23.628C21.5029 23.3 21.3389 22.864 21.3389 22.32ZM23.1989 23.34H24.6989C25.4189 23.34 25.7789 22.98 25.7789 22.26V17.34C25.7789 16.62 25.4189 16.26 24.6989 16.26H23.1989C22.4789 16.26 22.1189 16.62 22.1189 17.34V22.26C22.1189 22.98 22.4789 23.34 23.1989 23.34Z" fill="white"/>
<path d="M16.7982 8.62209C22.2794 6.09918 28.7737 7.6153 32.5712 12.3044C36.3687 16.9935 36.5021 23.661 32.8952 28.4982" stroke="white" stroke-width="1.22017" stroke-linecap="round" stroke-linejoin="round"/>
<path d="M18.4113 33.1998C23.7478 34.8573 29.5498 32.974 32.8955 28.4983" stroke="white" stroke-width="1.22017" stroke-linecap="square" stroke-linejoin="round"/>
<path d="M19.5913 10.699L16.1913 8.16237L18.728 4.76243" stroke="white" stroke-width="1.22017" stroke-linecap="square" stroke-linejoin="round"/>
</svg>
