<svg width="42" height="42" viewBox="0 0 42 42" fill="none" xmlns="http://www.w3.org/2000/svg">
<path d="M14.9984 24V23.28H16.4984V17.22H15.0584V16.5H16.4984V15.54H17.2784V23.28H18.7784V24H14.9984ZM19.6827 22.32V17.28C19.6827 16.736 19.8467 16.3 20.1747 15.972C20.5027 15.644 20.9387 15.48 21.4827 15.48H23.1027C23.6467 15.48 24.0827 15.644 24.4107 15.972C24.7387 16.3 24.9027 16.736 24.9027 17.28V22.32C24.9027 22.864 24.7347 23.3 24.3987 23.628C24.0707 23.956 23.6347 24.12 23.0907 24.12H21.4827C20.9387 24.12 20.5027 23.956 20.1747 23.628C19.8467 23.3 19.6827 22.864 19.6827 22.32ZM21.5427 23.34H23.0427C23.7627 23.34 24.1227 22.98 24.1227 22.26V17.34C24.1227 16.62 23.7627 16.26 23.0427 16.26H21.5427C20.8227 16.26 20.4627 16.62 20.4627 17.34V22.26C20.4627 22.98 20.8227 23.34 21.5427 23.34Z" fill="white"/>
<path d="M25.1158 8.62209C19.6346 6.09918 13.1404 7.6153 9.34287 12.3044C5.54535 16.9935 5.41196 23.661 9.01889 28.4982" stroke="white" stroke-width="1.22017" stroke-linecap="round" stroke-linejoin="round"/>
<path d="M23.5027 33.1998C18.1662 34.8573 12.3642 32.974 9.01855 28.4983" stroke="white" stroke-width="1.22017" stroke-linecap="square" stroke-linejoin="round"/>
<path d="M22.3228 10.699L25.7227 8.16237L23.1861 4.76243" stroke="white" stroke-width="1.22017" stroke-linecap="square" stroke-linejoin="round"/>
</svg>
