<svg width="20" height="20" viewBox="0 0 20 20" fill="none" xmlns="http://www.w3.org/2000/svg">
<path d="M7.57237 0.000244141L6.07527 1.45698L8.94127 4.24572V8.14109L5.54591 6.07469L4.63813 2.23163L2.57444 2.69441L3.34574 5.94994L0 6.70045L0.4756 8.70849L4.42308 7.82318L8.00248 10.0002L4.42308 12.1773L0.4756 11.292L0 13.3L3.34574 14.0505L2.57444 17.3061L4.63813 17.7689L5.54591 13.9258L8.94127 11.8614V15.7548L6.07527 18.5435L7.57237 20.0002L10 17.6381L12.4276 20.0002L13.9247 18.5435L11.0587 15.7548V11.8614L14.4541 13.9258L15.3619 17.7689L17.4256 17.3061L16.6543 14.0505L20 13.3L19.5244 11.292L15.5769 12.1773L11.9975 10.0002L15.5769 7.82318L19.5244 8.70849L20 6.70045L16.6543 5.94994L17.4256 2.69441L15.3619 2.23163L14.4541 6.07469L11.0587 8.14109V4.24572L13.9247 1.45698L12.4276 0.000244141L10 2.36242L7.57237 0.000244141Z" fill="url(#paint0_linear_1625_1707)"/>
<defs>
<linearGradient id="paint0_linear_1625_1707" x1="0" y1="0.000244141" x2="20" y2="20.0002" gradientUnits="userSpaceOnUse">
<stop stop-color="#53EAFF"/>
<stop offset="1" stop-color="#3448FF"/>
</linearGradient>
</defs>
</svg>
