<svg width="16" height="16" viewBox="0 0 16 16" fill="none" xmlns="http://www.w3.org/2000/svg">
<path d="M8 1.60001C4.0375 1.60001 0 2.65001 0 3.68001V7.20001C0 7.30376 0.02875 7.40501 0.09 7.50001C0.1375 7.40751 0.32 7.21001 0.32 7.21001C0.71 6.73876 4.02625 5.73001 8 5.73001C11.9738 5.73001 15.31 6.74626 15.68 7.21001C15.68 7.21001 15.8625 7.40751 15.91 7.50001C15.9712 7.40501 16 7.30376 16 7.20001V3.68001C16 2.65001 11.9625 1.60001 8 1.60001ZM7.6 6.37001C4.135 6.43251 1.2875 7.28376 0.82 7.61001L0.74 7.68001C0.67125 7.74126 0.64875 7.80251 0.64 7.83001C0.64 7.83001 0.63625 7.94751 0.64 7.95001C0.94375 11.7313 4.1425 14.72 8 14.72C11.8575 14.72 15.0562 11.7213 15.36 7.94001C15.3637 7.93876 15.36 7.83001 15.36 7.83001C15.3512 7.80251 15.3287 7.74126 15.26 7.68001L15.18 7.61001C14.7137 7.28376 11.865 6.43251 8.4 6.37001C8.26625 6.36751 8.1375 6.37001 8 6.37001C7.8625 6.37001 7.73375 6.36751 7.6 6.37001ZM8 7.04001C9.4075 7.04001 10.56 8.19251 10.56 9.60001V12.13C10.56 12.5775 9.4075 13.44 8 13.44C6.5925 13.44 5.44 12.5463 5.44 12.13V9.60001C5.44 8.19251 6.5925 7.04001 8 7.04001ZM8 9.92001C7.47 9.92001 7.04 10.35 7.04 10.88C7.04 11.41 7.47 11.84 8 11.84C8.53 11.84 8.96 11.41 8.96 10.88C8.96 10.35 8.53 9.92001 8 9.92001Z" fill="white"/>
</svg>
