<svg width="16" height="20" viewBox="0 0 16 20" fill="none" xmlns="http://www.w3.org/2000/svg">
<path d="M6.4 0.000244141C6.18783 0.000244141 5.98434 0.0812878 5.83431 0.225547C5.68429 0.369805 5.6 0.565462 5.6 0.769475C5.6 4.65947 0 7.69255 0 13.0772C0 17.1678 4.6108 19.8125 6.23438 19.9837C6.28884 19.9948 6.34434 20.0003 6.4 20.0002C6.61217 20.0002 6.81566 19.9192 6.96569 19.7749C7.11571 19.6307 7.2 19.435 7.2 19.231C7.19994 19.1167 7.1734 19.0039 7.12232 18.9008C7.07124 18.7976 6.99689 18.7066 6.90469 18.6346V18.6331C6.17669 18.0654 4.8 16.4185 4.8 14.9146C4.8 12.4461 7.2 11.5387 7.2 11.5387C5.8312 15.2618 10.3163 15.7116 11.2188 19.3978H11.2203C11.2597 19.5684 11.3584 19.7211 11.5002 19.8306C11.6419 19.9401 11.8182 20 12 20.0002C12.1685 19.9998 12.3325 19.9483 12.4688 19.853C12.4832 19.8429 12.4972 19.8324 12.5109 19.8215C12.6411 19.7402 16 17.6041 16 13.0772C16 11.229 15.0387 8.05448 14.3469 6.64838L14.3453 6.64387L14.3438 6.64087C14.2848 6.49738 14.1824 6.37423 14.0498 6.28742C13.9172 6.20062 13.7604 6.15416 13.6 6.15409C13.4132 6.15426 13.2323 6.2173 13.0887 6.33229C12.9452 6.44727 12.848 6.60694 12.8141 6.7836V6.7866C12.8121 6.79501 12.4447 8.36411 11.2 9.23101C11.2 5.60668 8.47869 1.86302 7.04375 0.314247C7.02222 0.286203 6.99872 0.259599 6.97344 0.234619C6.89902 0.160656 6.80992 0.101802 6.71143 0.0615439C6.61293 0.0212856 6.50703 0.000440939 6.4 0.000244141Z"
    fill="url(#paint0_linear_1625_1701)"/>
<defs>
<linearGradient id="paint0_linear_1625_1701" x1="0" y1="0.000244141" x2="19.5122" y2="15.61" gradientUnits="userSpaceOnUse">
<stop stop-color="#FF7253"/>
<stop offset="1" stop-color="#FF34A2"/>
</linearGradient>
</defs>
</svg>
