<svg width="16" height="20" viewBox="0 0 16 20" fill="none" xmlns="http://www.w3.org/2000/svg">
<path d="M6.4 0C6.18783 0 5.98434 0.0810437 5.83431 0.225302C5.68429 0.369561 5.6 0.565218 5.6 0.769231C5.6 4.65923 0 7.69231 0 13.0769C0 17.1676 4.6108 19.8123 6.23438 19.9835C6.28884 19.9945 6.34434 20 6.4 20C6.61217 20 6.81566 19.919 6.96569 19.7747C7.11571 19.6304 7.2 19.4348 7.2 19.2308C7.19994 19.1165 7.1734 19.0037 7.12232 18.9005C7.07124 18.7973 6.99689 18.7064 6.90469 18.6343C6.90469 18.6338 6.90469 18.6333 6.90469 18.6328C6.17669 18.0651 4.8 16.4182 4.8 14.9144C4.8 12.4459 7.2 11.5385 7.2 11.5385C5.8312 15.2615 10.3163 15.7114 11.2188 19.3975H11.2203C11.2597 19.5682 11.3584 19.7209 11.5002 19.8304C11.6419 19.9399 11.8182 19.9997 12 20C12.1685 19.9996 12.3325 19.9481 12.4688 19.8528C12.4832 19.8427 12.4972 19.8322 12.5109 19.8212C12.6411 19.7399 16 17.6039 16 13.0769C16 11.2288 15.0387 8.05423 14.3469 6.64814C14.3463 6.64698 14.3459 6.64479 14.3453 6.64363C14.3448 6.64263 14.3443 6.64162 14.3438 6.64062C14.2848 6.49713 14.1824 6.37398 14.0498 6.28718C13.9172 6.20037 13.7604 6.15392 13.6 6.15385C13.4132 6.15402 13.2323 6.21706 13.0887 6.33204C12.9452 6.44702 12.848 6.60669 12.8141 6.78335C12.8141 6.78436 12.8141 6.78536 12.8141 6.78636C12.8121 6.79476 12.4447 8.36386 11.2 9.23077C11.2 5.60644 8.47869 1.86278 7.04375 0.314002C7.02222 0.285959 6.99872 0.259355 6.97344 0.234375C6.89902 0.160412 6.80992 0.101558 6.71143 0.0612998C6.61293 0.0210415 6.50703 0.000196799 6.4 0Z" fill="white"/>
</svg>
