<svg width="18" height="18" viewBox="0 0 18 18" fill="none" xmlns="http://www.w3.org/2000/svg">
<path fill-rule="evenodd" clip-rule="evenodd" d="M9 18C13.9706 18 18 13.9706 18 9C18 4.02944 13.9706 0 9 0C4.02944 0 0 4.02944 0 9C0 13.9706 4.02944 18 9 18ZM10.8333 6.49999C10.8333 9.26124 8.59458 11.5 5.83333 11.5C5.295 11.5 4.7775 11.4125 4.29167 11.255C5.11667 12.8825 6.80083 14 8.75 14C11.5113 14 13.75 11.7612 13.75 9C13.75 6.77708 12.2979 4.895 10.2917 4.245C10.6354 4.92291 10.8333 5.68749 10.8333 6.49999Z" fill="white"/>
</svg>
