<svg width="18" height="18" viewBox="0 0 18 18" fill="none" xmlns="http://www.w3.org/2000/svg">
<path fill-rule="evenodd" clip-rule="evenodd" d="M9 18C13.9706 18 18 13.9706 18 9C18 4.02944 13.9706 0 9 0C4.02944 0 0 4.02944 0 9C0 13.9706 4.02944 18 9 18ZM8.58333 5.25V4H9.41667V5.25H8.58333ZM5.17025 5.75944L5.75944 5.17025L6.64323 6.05404L6.05404 6.64323L5.17025 5.75944ZM11.3568 6.05404L12.2406 5.17025L12.8298 5.75944L11.946 6.64323L11.3568 6.05404ZM6.93761 6.9376C7.48458 6.39062 8.22645 6.08333 9 6.08333C9.77355 6.08333 10.5154 6.39062 11.0624 6.9376C11.6094 7.48459 11.9167 8.22645 11.9167 9C11.9167 9.77355 11.6094 10.5154 11.0624 11.0624C10.5154 11.6094 9.77355 11.9167 9 11.9167C8.22645 11.9167 7.48458 11.6094 6.93761 11.0624C6.39062 10.5154 6.08333 9.77355 6.08333 9C6.08333 8.22645 6.39062 7.48459 6.93761 6.9376ZM5.25 9.41667H4V8.58333H5.25V9.41667ZM14 9.41667H12.75V8.58333H14V9.41667ZM5.17025 12.2406L6.05404 11.3568L6.64323 11.946L5.75944 12.8298L5.17025 12.2406ZM11.3568 11.946L11.946 11.3568L12.8298 12.2406L12.2406 12.8298L11.3568 11.946ZM8.58333 14V12.75H9.41667V14H8.58333Z" fill="white"/>
</svg>
