<svg width="136" height="40" fill="none" xmlns="http://www.w3.org/2000/svg"><g clip-path="url(#a)"><path d="M33.926 23.023c0 9.356-7.594 16.941-16.963 16.941C7.595 39.964 0 32.379 0 23.023 0 13.666 7.595 6.082 16.963 6.082c9.369 0 16.963 7.584 16.963 16.94z" fill="#CBC4C9"/><path d="M26.858 20.2c5.585 0 10.113-4.523 10.113-10.1C36.97 4.522 32.443 0 26.858 0S16.746 4.522 16.746 10.1c0 5.577 4.527 10.1 10.112 10.1z" fill="url(#b)" fill-opacity=".5"/><path d="M45.773 30.77h-1.43V15.384h1.43v15.384zm7.37 0h-1.43V15.384h1.65l7.592 12.747h.11V15.385h1.43v15.384h-1.65l-7.592-12.747h-.11v12.747zm19.469 0h-1.43V16.812H66.56v-1.428h10.673v.989l-.44.44h-4.181v13.955zm36.185 0h-1.43V16.812h-4.622v-1.428h10.674v.989l-.441.44h-4.181v13.955zm10.12 0h-1.43V15.384h1.43v15.384zm11.287 0h-1.782l-4.996-14.616v-.77h1.321l4.511 13.737h.11l4.511-13.736h1.321v.769l-4.996 14.615z" fill="#fff"/><path d="M84.383 30.989c-.983 0-1.783-.3-2.399-.901-.601-.616-.902-1.414-.902-2.396V15.385h1.43v12.197c0 1.32.66 1.978 1.98 1.978h3.632c1.32 0 1.98-.659 1.98-1.978V15.385h1.43v12.307c0 .982-.3 1.78-.901 2.396-.602.6-1.401.901-2.4.901h-3.85zm14.294-.22h-1.43V15.385h1.43v15.384z" fill="#4E7D94"/></g><defs><linearGradient id="b" x1="26.858" y1="0" x2="26.858" y2="20.199" gradientUnits="userSpaceOnUse"><stop stop-color="#fff" stop-opacity="0"/><stop offset="1" stop-color="#fff"/></linearGradient><clipPath id="a"><path fill="#fff" d="M0 0h136v40H0z"/></clipPath></defs></svg>