<svg width="24" height="24" viewBox="0 0 24 24" fill="none" xmlns="http://www.w3.org/2000/svg">
<path d="M20.2188 21.9383C20.8893 21.2678 21.1805 20.6299 21.3004 20.1376C21.4222 19.6335 21.2043 19.1145 20.7566 18.853C19.6393 18.1993 17.2285 16.7859 16.1103 16.1312C15.7428 15.9162 15.2921 15.9202 14.9266 16.1371L13.0774 17.2395C12.6634 17.4861 12.1464 17.4584 11.766 17.1622C11.1093 16.6492 10.0535 15.7855 9.13335 14.8663C8.21319 13.9462 7.3495 12.8903 6.83742 12.2336C6.54127 11.8543 6.51255 11.3363 6.76017 10.9222L7.86257 9.07302C8.08047 8.70754 8.08146 8.25291 7.86653 7.88544L5.14866 3.24704C4.95057 2.91127 4.60786 2.70129 4.23544 2.67059C4.11163 2.66068 3.98485 2.67059 3.85807 2.70129C3.3668 2.82114 2.72992 3.11234 2.06135 3.78091C-0.0315278 5.87379 -1.14185 9.40186 6.72748 17.2722C14.5968 25.1425 18.1249 24.0322 20.2188 21.9383ZM15.6665 10.3002C15.6754 10.3101 15.6853 10.319 15.6953 10.3289C16.0895 10.7083 16.7164 10.6954 17.0958 10.3002C17.4751 9.90601 17.4623 9.27904 17.0671 8.89969L14.7959 6.62853H23.3001C23.309 6.62853 23.3189 6.62853 23.3279 6.62853C23.8746 6.62061 24.3124 6.17093 24.3045 5.62419C24.2965 5.07744 23.8469 4.63965 23.3001 4.64758H14.7959L17.0671 2.37641C17.2582 2.19021 17.3672 1.93367 17.3672 1.66723C17.3672 1.12049 16.9234 0.676758 16.3767 0.676758C16.1093 0.676758 15.8527 0.78472 15.6665 0.976872L11.7046 4.93878C11.3183 5.32605 11.3183 5.95203 11.7046 6.33931L15.6665 10.3002Z" fill="white"/>
</svg>
