<svg width="24" height="19" viewBox="0 0 24 19" fill="none" xmlns="http://www.w3.org/2000/svg">
<path d="M11.9999 0.266724C6.52161 0.266724 2.66156 1.32922 0.521613 3.51672L0.4727 3.56672C-0.413849 4.42089 0.162917 7.78964 0.162917 7.95006C0.266858 8.42922 0.466586 8.85006 0.831396 9.11672C1.09227 9.32922 1.41428 9.38756 1.72813 9.33339C2.09295 9.22714 6.00395 8.42297 6.4727 8.31672C6.94145 8.21047 7.35721 7.72714 7.56509 7.03339C7.66903 6.66047 7.97882 5.06256 8.13575 4.31672C8.65748 4.21047 9.85993 4.05006 11.9999 4.05006C14.1398 4.05006 15.3423 4.26047 15.864 4.36672C16.0209 5.06047 16.3307 6.66047 16.4347 7.03339C16.6425 7.72714 17.0583 8.21047 17.5271 8.31672C17.9448 8.42297 21.8538 9.27922 22.2716 9.33339H22.4347C23.0094 9.33339 23.629 8.85631 23.8368 7.95006C23.8368 7.78964 24.4136 4.42089 23.5271 3.56672L23.4781 3.51672C21.3382 1.32922 17.4781 0.266724 11.9999 0.266724ZM11.951 8.25006C11.9285 8.25422 11.9061 8.26047 11.8857 8.26672C11.6432 8.32297 11.472 8.54589 11.4781 8.80006V16.0334L9.76618 14.2834C9.63982 14.1501 9.45436 14.0938 9.27705 14.1334C9.0814 14.1688 8.92447 14.3146 8.86944 14.5084C8.81441 14.7042 8.87148 14.9126 9.01618 15.0501L11.5597 17.6334C11.5698 17.6501 11.58 17.6667 11.5923 17.6834L11.6249 17.7167C11.6493 17.7417 11.6779 17.7646 11.7064 17.7834L11.9999 18.0834L12.2934 17.7834C12.3362 17.7501 12.3749 17.7105 12.4075 17.6667L14.9836 15.0501C15.1915 14.8376 15.1915 14.4959 14.9836 14.2834C14.7757 14.0709 14.4415 14.0709 14.2336 14.2834L12.5216 16.0334V8.80006C12.5277 8.64589 12.4666 8.49797 12.3586 8.39381C12.2485 8.28756 12.0997 8.23547 11.951 8.25006Z" fill="white"/>
</svg>
