<svg width="20" height="20" viewBox="0 0 20 20" fill="none" xmlns="http://www.w3.org/2000/svg">
<g clip-path="url(#clip0_117_172)">
<path d="M0 1C0 0.447716 0.447715 0 1 0H19C19.5523 0 20 0.447715 20 1V19C20 19.5523 19.5523 20 19 20H1C0.447715 20 0 19.5523 0 19V1ZM10.0022 4.47222C9.64855 4.47222 9.2947 4.70701 9.2947 5.17535V15.4162C9.2947 16.3529 10.7096 16.3529 10.7096 15.4162V5.17535C10.7096 4.70701 10.3558 4.47222 10.0022 4.47222ZM6.46918 4.82595C6.11557 4.82595 5.76172 5.06074 5.76172 5.52908V14.9648C5.76172 15.9015 7.17448 15.9015 7.17448 14.9648V5.52908C7.17448 5.06074 6.82279 4.82595 6.46918 4.82595ZM13.5308 4.82595C13.1772 4.82595 12.8233 5.06074 12.8233 5.52908V14.9648C12.8233 15.9015 14.2383 15.9015 14.2383 14.9648V5.52908C14.2383 5.06074 13.8844 4.82595 13.5308 4.82595ZM2.93403 6.24088C2.58042 6.24088 2.22873 6.47567 2.22873 6.94401V13.296C2.22873 14.2327 3.64149 14.2327 3.64149 13.296V6.94401C3.64149 6.47567 3.28764 6.24088 2.93403 6.24088ZM17.0638 6.24088C16.7102 6.24088 16.3563 6.47567 16.3563 6.94401V13.296C16.3563 14.2327 17.7713 14.2327 17.7713 13.296V6.94401C17.7713 6.47567 17.4174 6.24088 17.0638 6.24088Z" fill="white"/>
</g>
<defs>
<clipPath id="clip0_117_172">
<rect width="20" height="20" fill="white"/>
</clipPath>
</defs>
</svg>
