<svg width="24" height="24" viewBox="0 0 24 24" fill="none" xmlns="http://www.w3.org/2000/svg">
<path d="M15 15.1895L9 15.1895" stroke="white" stroke-width="1.5" stroke-linecap="round" stroke-linejoin="round"/>
<path fill-rule="evenodd" clip-rule="evenodd" d="M8.54094 14.8957C6.76494 13.6407 5.69994 11.4497 6.07494 9.0377C6.48094 6.4307 8.65394 4.3497 11.2749 4.0427C14.9129 3.6157 17.9999 6.4477 17.9999 9.9997C17.9999 12.0247 16.9939 13.8117 15.4569 14.8977C15.1809 15.0927 14.9999 15.3947 14.9999 15.7327V18.4997C14.9999 19.8807 13.8809 20.9997 12.4999 20.9997H11.4999C10.1189 20.9997 8.99994 19.8807 8.99994 18.4997V15.7367C8.99994 15.3957 8.81794 15.0917 8.54094 14.8957Z" fill="white" stroke="white" stroke-width="1.5" stroke-linecap="round" stroke-linejoin="round"/>
<path d="M20 4.99957L21.19 3.80957" stroke="white" stroke-width="1.5" stroke-linecap="round" stroke-linejoin="round"/>
<path d="M4.0025 15L2.8125 16.19" stroke="white" stroke-width="1.5" stroke-linecap="round" stroke-linejoin="round"/>
<path d="M5.0025 3.99957L3.8125 2.80957" stroke="white" stroke-width="1.5" stroke-linecap="round" stroke-linejoin="round"/>
<path d="M20 15L21.19 16.19" stroke="white" stroke-width="1.5" stroke-linecap="round" stroke-linejoin="round"/>
<path d="M21 10H22.69" stroke="white" stroke-width="1.5" stroke-linecap="round" stroke-linejoin="round"/>
<path d="M1.3125 10H3.0025" stroke="white" stroke-width="1.5" stroke-linecap="round" stroke-linejoin="round"/>
<path d="M9 18H14.87" stroke="white" stroke-width="1.5" stroke-linecap="round" stroke-linejoin="round"/>
</svg>
