<svg width="27" height="3" viewBox="0 0 27 3" fill="none" xmlns="http://www.w3.org/2000/svg">
<path fill-rule="evenodd" clip-rule="evenodd" d="M24 1.5C24 2.32843 24.6716 3 25.5 3C26.3284 3 27 2.32843 27 1.5C27 0.671573 26.3284 0 25.5 0C24.6716 0 24 0.671573 24 1.5ZM19.499 3C18.6706 3 17.999 2.32843 17.999 1.5C17.999 0.671573 18.6706 0 19.499 0C20.3274 0 20.999 0.671573 20.999 1.5C20.999 2.32843 20.3274 3 19.499 3ZM13.5 3.00024C12.6716 3.00024 12 2.32867 12 1.50024C12 0.671817 12.6716 0.000244141 13.5 0.000244141C14.3284 0.000244141 15 0.671817 15 1.50024C15 2.32867 14.3284 3.00024 13.5 3.00024ZM7.5 3.00024C6.67157 3.00024 6 2.32867 6 1.50024C6 0.671817 6.67157 0.000244141 7.5 0.000244141C8.32843 0.000244141 9 0.671817 9 1.50024C9 2.32867 8.32843 3.00024 7.5 3.00024ZM0 1.50024C0 2.32867 0.671574 3.00024 1.5 3.00024C2.32843 3.00024 3 2.32867 3 1.50024C3 0.671817 2.32843 0.000244141 1.5 0.000244141C0.671574 0.000244141 0 0.671817 0 1.50024Z" fill="white"/>
</svg>
