<svg width="10" height="10" viewBox="0 0 10 10" fill="none" xmlns="http://www.w3.org/2000/svg">
<path d="M8.26172 0C8.04849 0 7.83523 0.0814323 7.67253 0.244141L6.66667 1.25L8.75 3.33333L9.75586 2.32747C10.0813 2.00206 10.0813 1.4745 9.75586 1.14909L8.85091 0.244141C8.6882 0.0814323 8.47495 0 8.26172 0ZM5.83333 2.08333L0.941569 6.9751C0.941569 6.9751 1.32397 6.94083 1.46647 7.08333C1.60897 7.22583 1.49167 8.15833 1.66667 8.33333C1.84167 8.50833 2.76829 8.38515 2.9012 8.51807C3.03412 8.65098 3.0249 9.05843 3.0249 9.05843L7.91667 4.16667L5.83333 2.08333ZM0.416667 8.33333L0.0236003 9.44661C0.00814809 9.49055 0.000170765 9.53676 0 9.58333C0 9.69384 0.0438987 9.79982 0.122039 9.87796C0.200179 9.9561 0.30616 10 0.416667 10C0.463238 9.99983 0.509452 9.99185 0.553385 9.9764C0.554745 9.97586 0.556101 9.97532 0.557454 9.97477L0.568034 9.97152C0.56885 9.97098 0.569663 9.97043 0.570475 9.96989L1.66667 9.58333L1.04167 8.95833L0.416667 8.33333Z" fill="white"/>
</svg>
