<svg width="27" height="27" viewBox="0 0 27 27" fill="none" xmlns="http://www.w3.org/2000/svg">
<path fill-rule="evenodd" clip-rule="evenodd" d="M13.5 3C14.3284 3 15 2.32843 15 1.5C15 0.671573 14.3284 0 13.5 0C12.6716 0 12 0.671573 12 1.5C12 2.32843 12.6716 3 13.5 3ZM13.5 9C14.3284 9 15 8.32843 15 7.5C15 6.67157 14.3284 6 13.5 6C12.6716 6 12 6.67157 12 7.5C12 8.32843 12.6716 9 13.5 9ZM14.9995 13.5398C14.9784 14.3498 14.3151 15 13.5 15C12.6716 15 12 14.3284 12 13.5C12 12.6716 12.6716 12 13.5 12C14.3268 12 14.9974 12.669 15 13.4953C15 13.4969 15 13.4986 15 13.5002C15 13.5066 15 13.513 14.9999 13.5194C14.9998 13.5262 14.9997 13.533 14.9995 13.5398ZM13.5 21C14.3284 21 15 20.3284 15 19.5C15 18.6716 14.3284 18 13.5 18C12.6716 18 12 18.6716 12 19.5C12 20.3284 12.6716 21 13.5 21ZM15 25.5C15 26.3284 14.3284 27 13.5 27C12.6716 27 12 26.3284 12 25.5C12 24.6716 12.6716 24 13.5 24C14.3284 24 15 24.6716 15 25.5ZM25.5 15C24.6716 15 24 14.3284 24 13.5C24 12.6716 24.6716 12 25.5 12C26.3284 12 27 12.6716 27 13.5C27 14.3284 26.3284 15 25.5 15ZM17.999 13.5C17.999 14.3284 18.6706 15 19.499 15C20.3274 15 20.999 14.3284 20.999 13.5C20.999 12.6716 20.3274 12 19.499 12C18.6706 12 17.999 12.6716 17.999 13.5ZM6 13.5002C6 14.3287 6.67157 15.0002 7.5 15.0002C8.32843 15.0002 9 14.3287 9 13.5002C9 12.6718 8.32843 12.0002 7.5 12.0002C6.67157 12.0002 6 12.6718 6 13.5002ZM1.5 15.0002C0.671574 15.0002 0 14.3287 0 13.5002C0 12.6718 0.671574 12.0002 1.5 12.0002C2.32843 12.0002 3 12.6718 3 13.5002C3 14.3287 2.32843 15.0002 1.5 15.0002Z" fill="white"/>
</svg>
