<svg width="20" height="20" viewBox="0 0 20 20" fill="none" xmlns="http://www.w3.org/2000/svg">
<g clip-path="url(#clip0_2_306)">
<path fill-rule="evenodd" clip-rule="evenodd" d="M14.7013 4.05547C14.3732 3.82723 14.0278 3.62224 13.6677 3.44288C13.2969 3.25824 12.8466 3.40914 12.662 3.77993C12.4773 4.15071 12.6282 4.60097 12.999 4.78561C13.2126 4.89198 13.4198 5.00933 13.6199 5.1369L14.7013 4.05547ZM9.66671 17.5753C9.77713 17.5807 9.88825 17.5834 10 17.5834C13.7283 17.5834 16.75 14.5617 16.75 10.8334C16.75 10.7217 16.7473 10.6106 16.7419 10.5001L18.0801 9.1619C18.1915 9.70167 18.25 10.2607 18.25 10.8334C18.25 15.3901 14.5567 19.0834 10 19.0834C9.42722 19.0834 8.86805 19.025 8.32814 18.9139L9.66671 17.5753ZM10.75 8.00676L9.25 9.50676V1.66675C9.25 1.25253 9.58579 0.916748 10 0.916748C10.4142 0.916748 10.75 1.25253 10.75 1.66675V8.00676ZM4.3024 14.4544L3.22067 15.5361C2.29351 14.202 1.75 12.5812 1.75 10.8334C1.75 7.59363 3.61779 4.79196 6.33197 3.44266C6.70287 3.25827 7.15303 3.40947 7.33742 3.78038C7.52181 4.15129 7.37061 4.60145 6.9997 4.78584C4.77554 5.89154 3.25 8.18487 3.25 10.8334C3.25 12.1659 3.63606 13.4081 4.3024 14.4544Z" fill="white"/>
<path fill-rule="evenodd" clip-rule="evenodd" d="M18 4.99994L4.77353 19.3594L4 18.5859L17.2265 4.2264L18 4.99994Z" fill="#FF3636" stroke="#FF3636" stroke-width="0.5"/>
</g>
<defs>
<clipPath id="clip0_2_306">
<rect width="20" height="20" fill="white"/>
</clipPath>
</defs>
</svg>
