<svg width="18" height="18" viewBox="0 0 24 24" fill="none" xmlns="http://www.w3.org/2000/svg">
<path fill-rule="evenodd" clip-rule="evenodd" d="M13 0H11V12H13V0ZM7.37803 5.86552L8.24355 5.36465L7.2418 3.63361L6.37628 4.13448C3.16855 5.99078 1 9.40076 1 13.3173C1 19.2474 5.95551 24 12 24C18.0445 24 23 19.2474 23 13.3173C23 9.40076 20.8314 5.99078 17.6237 4.13448L16.7582 3.63361L15.7565 5.36465L16.622 5.86552C19.2565 7.39011 21 10.1647 21 13.3173C21 18.0825 17.0012 22 12 22C6.99879 22 3 18.0825 3 13.3173C3 10.1647 4.74349 7.39011 7.37803 5.86552Z" fill="white"/>
</svg>
