<svg width="20" height="20" viewBox="0 0 20 20" fill="none" xmlns="http://www.w3.org/2000/svg">
<path fill-rule="evenodd" clip-rule="evenodd" d="M10.8337 0H9.16699V9.91322H10.8337V0ZM6.22889 4.998L7.0963 4.5004L6.10108 2.76559L5.23368 3.2632C2.51374 4.82355 0.666992 7.69534 0.666992 11.0016C0.666992 16.0097 4.88467 20.0004 10.0003 20.0004C15.116 20.0004 19.3337 16.0097 19.3337 11.0016C19.3337 7.69534 17.4869 4.82355 14.767 3.2632L13.8996 2.76559L12.9044 4.5004L13.7718 4.998C15.9204 6.23061 17.3337 8.46788 17.3337 11.0016C17.3337 14.8287 14.0894 18.0004 10.0003 18.0004C5.91123 18.0004 2.66699 14.8287 2.66699 11.0016C2.66699 8.46788 4.08028 6.23061 6.22889 4.998Z" fill="white"/>
</svg>
