<svg viewBox="0 0 20 20" fill="none" xmlns="http://www.w3.org/2000/svg">
<g opacity="1">
<path fill-rule="evenodd" clip-rule="evenodd" d="M12.9165 14.1666C14.0673 14.1666 14.9998 15.1 14.9998 16.25C14.9998 17.4008 14.0673 18.3333 12.9165 18.3333C11.7657 18.3333 10.8332 17.4008 10.8332 16.25C10.8332 15.1 11.7657 14.1666 12.9165 14.1666ZM14.9998 16.25V1.66664L18.3332 2.49997V5.83331L14.9998 4.99997V16.25Z" fill="white"/>
<path fill-rule="evenodd" clip-rule="evenodd" d="M13.9998 0.385864L19.3332 1.7192V7.11408L15.9998 6.28075V16.25C15.9998 17.9531 14.6196 19.3333 12.9165 19.3333C11.2134 19.3333 9.83317 17.9531 9.83317 16.25C9.83317 14.5479 11.2131 13.1666 12.9165 13.1666C13.2978 13.1666 13.6628 13.2358 13.9998 13.3624V0.385864ZM15.9998 4.2192V2.94742L17.3332 3.28075V4.55253L15.9998 4.2192ZM1.6665 3.99997H10.8332V5.99997H1.6665V3.99997ZM1.6665 8.16664H10.8332V10.1666H1.6665V8.16664ZM1.6665 12.3333H6.6665V14.3333H1.6665V12.3333ZM12.9165 15.1666C12.3182 15.1666 11.8332 15.652 11.8332 16.25C11.8332 16.8485 12.318 17.3333 12.9165 17.3333C13.5151 17.3333 13.9998 16.8485 13.9998 16.25C13.9998 15.652 13.5148 15.1666 12.9165 15.1666Z" fill="white"/>
</g>
</svg>
