<svg width="20" height="20" viewBox="0 0 20 20" fill="none" xmlns="http://www.w3.org/2000/svg">
<path d="M10.3672 8.11328L11.625 6.55078C12.6055 5.41406 14.0469 4.77344 15.5508 4.77344H17.7578L15.8594 2.86719L16.6875 2.03906L20 5.35156L16.625 8.69531L15.7969 7.86719L17.6992 5.96484H15.4922C14.3555 5.96484 13.2539 6.45703 12.4844 7.31641L11.2266 8.87891L10.3672 8.11328ZM6.77734 12.5625C5.98047 13.5117 4.84375 14.0664 3.58594 14.0664H0V15.2305H3.58984C5.18359 15.2305 6.65625 14.5234 7.64062 13.2969L8.74609 11.9453L7.85156 11.2109L6.77734 12.5625ZM15.7969 12.1641L17.6992 14.0664H15.4922C14.2656 14.0664 13.1289 13.5156 12.3633 12.5937L7.45312 6.48828C6.44141 5.41406 5.05859 4.80078 3.58984 4.80078H0V5.96484H3.58984C4.75391 5.96484 5.85938 6.45703 6.625 7.31641L11.4414 13.2656C12.4219 14.5234 13.9258 15.2305 15.5195 15.2305H17.7266L15.793 17.1328L16.6211 17.9609L19.9336 14.6484L16.6211 11.3359L15.7969 12.1641Z" fill="white"/>
</svg>
