<svg width="26" height="27" viewBox="0 0 26 27" fill="none" xmlns="http://www.w3.org/2000/svg"><path d="M5.5 24.5C4.94772 24.5 4.5 24.9477 4.5 25.5C4.5 26.0523 4.94772 26.5 5.5 26.5V24.5ZM0.292893 7.29289C-0.0976311 7.68342 -0.0976311 8.31658 0.292893 8.70711L6.65685 15.0711C7.04738 15.4616 7.68054 15.4616 8.07107 15.0711C8.46159 14.6805 8.46159 14.0474 8.07107 13.6569L2.41421 8L8.07107 2.34315C8.46159 1.95262 8.46159 1.31946 8.07107 0.928932C7.68054 0.538408 7.04738 0.538408 6.65685 0.928932L0.292893 7.29289ZM5.5 26.5H15.75V24.5H5.5V26.5ZM15.75 7H1V9H15.75V7ZM25.5 16.75C25.5 11.3652 21.1348 7 15.75 7V9C20.0302 9 23.5 12.4698 23.5 16.75H25.5ZM15.75 26.5C21.1348 26.5 25.5 22.1348 25.5 16.75H23.5C23.5 21.0302 20.0302 24.5 15.75 24.5V26.5Z" fill="white"/></svg>
