<svg viewBox="0 0 111 31" fill="none" xmlns="http://www.w3.org/2000/svg">
<rect width="111" height="30.4945" rx="15.2473" fill="#202028"/>
<circle cx="15.2509" cy="15.2473" r="10.3681" fill="url(#paint0_linear_444_54935)"/>
<path d="M12.9031 18.5386V17.6886H15.8831C16.1497 17.6886 16.3497 17.6219 16.4831 17.4886C16.6231 17.3486 16.6931 17.1452 16.6931 16.8786V16.3886C16.6931 16.1686 16.6231 15.9852 16.4831 15.8386C16.3497 15.6919 16.1564 15.5952 15.9031 15.5486L14.2031 15.1786C13.7964 15.0852 13.4764 14.9119 13.2431 14.6586C13.0164 14.3986 12.9031 14.0686 12.9031 13.6686V13.0386C12.9031 12.5852 13.0397 12.2219 13.3131 11.9486C13.5931 11.6752 13.9564 11.5386 14.4031 11.5386H17.3931V12.1286L17.1331 12.3886H14.6131C14.3464 12.3886 14.1431 12.4586 14.0031 12.5986C13.8697 12.7319 13.8031 12.9319 13.8031 13.1986V13.5186C13.8031 13.7319 13.8697 13.9119 14.0031 14.0586C14.1431 14.2052 14.3397 14.3019 14.5931 14.3486L16.2931 14.7286C16.6997 14.8152 17.0164 14.9886 17.2431 15.2486C17.4764 15.5019 17.5931 15.8252 17.5931 16.2186V17.0386C17.5931 17.4852 17.4564 17.8486 17.1831 18.1286C16.9097 18.4019 16.5464 18.5386 16.0931 18.5386H12.9031Z" fill="white"/>
<path d="M33.5422 18.7581H32.6422V12.6081H30.5922V11.7581H35.6022V12.3481L35.3322 12.6081H33.5422V18.7581ZM40.857 18.7581H36.587V11.7581H40.857V12.3481L40.587 12.6081H37.487V14.7681H39.907V15.6181H37.487V17.9081H40.857V18.7581ZM42.6551 18.7581H41.7351V18.2981L42.4951 11.7581H43.4851L45.4351 16.5381H45.4951L47.4451 11.7581H48.4351L49.1951 18.2981V18.7581H48.2651L47.7351 13.3481H47.6851L45.8951 17.7581H45.0351L43.2451 13.3481H43.1951L42.6551 18.7581ZM50.6007 18.7581V11.7581H53.9107C54.364 11.7581 54.7274 11.8947 55.0007 12.1681C55.274 12.4414 55.4107 12.8047 55.4107 13.2581V14.9481C55.4107 15.3947 55.274 15.7581 55.0007 16.0381C54.7274 16.3114 54.364 16.4481 53.9107 16.4481H51.5007V18.7581H50.6007ZM53.7007 15.5981C53.9674 15.5981 54.1674 15.5314 54.3007 15.3981C54.4407 15.2581 54.5107 15.0547 54.5107 14.7881V13.4181C54.5107 13.1514 54.4407 12.9514 54.3007 12.8181C54.1674 12.6781 53.9674 12.6081 53.7007 12.6081H51.5007V15.5981H53.7007ZM58.7754 18.7581V17.9081H61.7554C62.0221 17.9081 62.2221 17.8414 62.3554 17.7081C62.4954 17.5681 62.5654 17.3647 62.5654 17.0981V16.6081C62.5654 16.3881 62.4954 16.2047 62.3554 16.0581C62.2221 15.9114 62.0287 15.8147 61.7754 15.7681L60.0754 15.3981C59.6687 15.3047 59.3487 15.1314 59.1154 14.8781C58.8887 14.6181 58.7754 14.2881 58.7754 13.8881V13.2581C58.7754 12.8047 58.9121 12.4414 59.1854 12.1681C59.4654 11.8947 59.8287 11.7581 60.2754 11.7581H63.2654V12.3481L63.0054 12.6081H60.4854C60.2187 12.6081 60.0154 12.6781 59.8754 12.8181C59.7421 12.9514 59.6754 13.1514 59.6754 13.4181V13.7381C59.6754 13.9514 59.7421 14.1314 59.8754 14.2781C60.0154 14.4247 60.2121 14.5214 60.4654 14.5681L62.1654 14.9481C62.5721 15.0347 62.8887 15.2081 63.1154 15.4681C63.3487 15.7214 63.4654 16.0447 63.4654 16.4381V17.2581C63.4654 17.7047 63.3287 18.0681 63.0554 18.3481C62.7821 18.6214 62.4187 18.7581 61.9654 18.7581H58.7754ZM69.1285 18.7581H64.8585V11.7581H69.1285V12.3481L68.8585 12.6081H65.7585V14.7681H68.1785V15.6181H65.7585V17.9081H69.1285V18.7581ZM71.2566 18.7581H70.3566V11.7581H71.3566L74.4866 17.1481H74.5366L74.4966 16.2381V11.7581H75.3966V18.7581H74.3966L71.2666 13.3681H71.2166L71.2566 14.2781V18.7581ZM76.7734 18.7581V17.9081H79.7534C80.0201 17.9081 80.2201 17.8414 80.3534 17.7081C80.4934 17.5681 80.5634 17.3647 80.5634 17.0981V16.6081C80.5634 16.3881 80.4934 16.2047 80.3534 16.0581C80.2201 15.9114 80.0268 15.8147 79.7734 15.7681L78.0734 15.3981C77.6668 15.3047 77.3468 15.1314 77.1134 14.8781C76.8868 14.6181 76.7734 14.2881 76.7734 13.8881V13.2581C76.7734 12.8047 76.9101 12.4414 77.1834 12.1681C77.4634 11.8947 77.8268 11.7581 78.2734 11.7581H81.2634V12.3481L81.0034 12.6081H78.4834C78.2168 12.6081 78.0134 12.6781 77.8734 12.8181C77.7401 12.9514 77.6734 13.1514 77.6734 13.4181V13.7381C77.6734 13.9514 77.7401 14.1314 77.8734 14.2781C78.0134 14.4247 78.2101 14.5214 78.4634 14.5681L80.1634 14.9481C80.5701 15.0347 80.8868 15.2081 81.1134 15.4681C81.3468 15.7214 81.4634 16.0447 81.4634 16.4381V17.2581C81.4634 17.7047 81.3268 18.0681 81.0534 18.3481C80.7801 18.6214 80.4168 18.7581 79.9634 18.7581H76.7734ZM84.2066 18.8581C83.7599 18.8581 83.3966 18.7214 83.1166 18.4481C82.8432 18.1681 82.7066 17.8047 82.7066 17.3581V13.1581C82.7066 12.7047 82.8432 12.3414 83.1166 12.0681C83.3966 11.7947 83.7599 11.6581 84.2066 11.6581H86.2166C86.6699 11.6581 87.0332 11.7947 87.3066 12.0681C87.5799 12.3414 87.7166 12.7047 87.7166 13.1581V17.3581C87.7166 17.8047 87.5799 18.1681 87.3066 18.4481C87.0332 18.7214 86.6699 18.8581 86.2166 18.8581H84.2066ZM86.0066 18.0081C86.2732 18.0081 86.4732 17.9414 86.6066 17.8081C86.7466 17.6681 86.8166 17.4647 86.8166 17.1981V13.3181C86.8166 13.0514 86.7466 12.8514 86.6066 12.7181C86.4732 12.5781 86.2732 12.5081 86.0066 12.5081H84.4166C84.1499 12.5081 83.9466 12.5781 83.8066 12.7181C83.6732 12.8514 83.6066 13.0514 83.6066 13.3181V17.1981C83.6066 17.4647 83.6732 17.6681 83.8066 17.8081C83.9466 17.9414 84.1499 18.0081 84.4166 18.0081H86.0066ZM94.2612 18.2981V18.7581H93.4412L92.0012 16.0781H90.2312V18.7581H89.3312V11.7581H92.6412C93.0945 11.7581 93.4578 11.8947 93.7312 12.1681C94.0045 12.4414 94.1412 12.8047 94.1412 13.2581V14.5781C94.1412 15.0114 94.0112 15.3481 93.7512 15.5881C93.4978 15.8214 93.2145 15.9514 92.9012 15.9781L94.2612 18.2981ZM90.2312 15.2181H92.4312C92.6912 15.2181 92.8912 15.1481 93.0312 15.0081C93.1712 14.8681 93.2412 14.6681 93.2412 14.4081V13.4181C93.2412 13.1514 93.1712 12.9514 93.0312 12.8181C92.8978 12.6781 92.6978 12.6081 92.4312 12.6081H90.2312V15.2181Z" fill="white"/>
<defs>
<linearGradient id="paint0_linear_444_54935" x1="15.2509" y1="4.87915" x2="15.2509" y2="25.6154" gradientUnits="userSpaceOnUse">
<stop stop-color="#2C2C37"/>
<stop offset="0.874549" stop-color="#09090E"/>
</linearGradient>
</defs>
</svg>
