<svg width="24" height="24" viewBox="0 0 24 24" fill="none" xmlns="http://www.w3.org/2000/svg">
<path d="M12 0L11.4 0.600001V12H12.8484L20.484 4.3644V3.516C18.312 1.344 15.312 0 12 0Z" fill="url(#paint0_linear_117_72)"/>
<path d="M20.4852 3.5149L12 12.0001L12.6 12.6001H23.3982L23.9982 12.0001C23.9982 8.9287 22.827 5.8567 20.4852 3.5149Z" fill="url(#paint1_linear_117_72)"/>
<path d="M24 12.0001H12V12.8485L19.6356 20.4841H20.484C22.656 18.3121 24 15.3121 24 12.0001Z" fill="url(#paint2_linear_117_72)"/>
<path d="M20.4852 20.4853L12 12.0001L11.4 12.6001V23.3983L12 23.9983C15.0714 23.9983 18.1434 22.8271 20.4852 20.4853Z" fill="url(#paint3_linear_117_72)"/>
<path d="M12 24.0001V12.0001H11.1516L3.51599 19.6357V20.4841C5.68799 22.6561 8.688 24.0001 12 24.0001Z" fill="url(#paint4_linear_117_72)"/>
<path d="M3.51477 20.4853L12 12.0001L11.4 11.4001H0.601771L0.00177002 12.0001C0.00177002 15.0715 1.17297 18.1435 3.51477 20.4853Z" fill="url(#paint5_linear_117_72)"/>
<path d="M0 12H12V11.1516L4.3644 3.51599H3.516C1.344 5.68799 0 8.688 0 12Z" fill="url(#paint6_linear_117_72)"/>
<path d="M3.51477 3.51482L12 12V0.00181843C8.92858 0.00181843 5.85657 1.17302 3.51477 3.51482Z" fill="url(#paint7_linear_117_72)"/>
<path d="M12 7.20001L11.3976 7.80241V12H12.8484L15.3936 9.45481V8.60641C14.5248 7.73761 13.3248 7.20001 12 7.20001Z" fill="url(#paint8_linear_117_72)"/>
<path d="M15.3942 8.60589L12 12.0001L12.6 12.6001H16.1994L16.7994 12.0001C16.7994 10.7713 16.3308 9.5425 15.3942 8.60589Z" fill="url(#paint9_linear_117_72)"/>
<path d="M16.8 12.0001H12V12.8485L14.5452 15.3937H15.3936C16.2624 14.5249 16.8 13.3249 16.8 12.0001Z" fill="url(#paint10_linear_117_72)"/>
<path d="M15.3942 15.3943L12 12.0001L11.4 12.6001L11.3976 16.1971L12 16.7995C13.2288 16.7995 14.4576 16.3309 15.3942 15.3943Z" fill="url(#paint11_linear_117_72)"/>
<path d="M12 16.8001V12.0001H11.1516L8.60638 14.5453V15.3937C9.47518 16.2625 10.6752 16.8001 12 16.8001Z" fill="url(#paint12_linear_117_72)"/>
<path d="M8.60582 15.3943L12 12.0001L11.4 11.4001H7.80062L7.20062 12.0001C7.20062 13.2289 7.66922 14.4577 8.60582 15.3943Z" fill="url(#paint13_linear_117_72)"/>
<path d="M7.20001 12.0001H12V11.1517L9.45481 8.6065H8.60641C7.73761 9.4753 7.20001 10.6753 7.20001 12.0001Z" fill="url(#paint14_linear_117_72)"/>
<path d="M8.60577 8.60581L12 12V7.20061C10.7712 7.20061 9.54237 7.66921 8.60577 8.60581Z" fill="url(#paint15_linear_117_72)"/>
<defs>
<linearGradient id="paint0_linear_117_72" x1="7.65475" y1="-0.509366" x2="13.5" y2="-0.5" gradientUnits="userSpaceOnUse">
<stop stop-color="#FFA320"/>
<stop offset="0.494219" stop-color="#FF9C0E"/>
<stop offset="1" stop-color="#FF9906"/>
</linearGradient>
<linearGradient id="paint1_linear_117_72" x1="17.997" y1="-2.33861" x2="17.9965" y2="26.2568" gradientUnits="userSpaceOnUse">
<stop stop-color="#FFDBA7"/>
<stop offset="0.48" stop-color="#FFC674"/>
<stop offset="1" stop-color="#FFB956"/>
</linearGradient>
<linearGradient id="paint2_linear_117_72" x1="22.242" y1="10.242" x2="15.8178" y2="16.6663" gradientUnits="userSpaceOnUse">
<stop stop-color="white"/>
<stop offset="0.482" stop-color="#EFEEEC"/>
<stop offset="1" stop-color="#D7D7D7"/>
</linearGradient>
<linearGradient id="paint3_linear_117_72" x1="20.4871" y1="18.0012" x2="11.4019" y2="18.0014" gradientUnits="userSpaceOnUse">
<stop stop-color="#A7D2FF"/>
<stop offset="1" stop-color="#ADD5FF"/>
</linearGradient>
<linearGradient id="paint4_linear_117_72" x1="13.758" y1="22.2421" x2="7.33379" y2="15.8179" gradientUnits="userSpaceOnUse">
<stop stop-color="#A7D2FF"/>
<stop offset="1" stop-color="#ADD5FF"/>
</linearGradient>
<linearGradient id="paint5_linear_117_72" x1="6.00209" y1="21.783" x2="6.00224" y2="12.6978" gradientUnits="userSpaceOnUse">
<stop offset="0.002" stop-color="white"/>
<stop offset="0.48" stop-color="#EFEEEC"/>
<stop offset="1" stop-color="#D7D7D7"/>
</linearGradient>
<linearGradient id="paint6_linear_117_72" x1="1.758" y1="13.758" x2="8.18221" y2="7.33379" gradientUnits="userSpaceOnUse">
<stop stop-color="#FFDBA7"/>
<stop offset="0.48" stop-color="#FFC674"/>
<stop offset="1" stop-color="#FFB956"/>
</linearGradient>
<linearGradient id="paint7_linear_117_72" x1="3.51441" y1="6.00508" x2="19.5" y2="6" gradientUnits="userSpaceOnUse">
<stop stop-color="#FFA320"/>
<stop offset="0.48" stop-color="#FF9C0E"/>
<stop offset="1" stop-color="#FF9906"/>
</linearGradient>
<linearGradient id="paint8_linear_117_72" x1="10.0746" y1="6.98221" x2="13.8006" y2="10.7082" gradientUnits="userSpaceOnUse">
<stop stop-color="#FFB64E"/>
<stop offset="0.48" stop-color="#FFAC36"/>
<stop offset="1" stop-color="#FFA420"/>
</linearGradient>
<linearGradient id="paint9_linear_117_72" x1="14.3974" y1="6.03036" x2="14.3972" y2="18.6022" gradientUnits="userSpaceOnUse">
<stop stop-color="#FFDBA7"/>
<stop offset="0.48" stop-color="#FFC674"/>
<stop offset="1" stop-color="#FFB956"/>
</linearGradient>
<linearGradient id="paint10_linear_117_72" x1="16.0968" y1="11.2969" x2="13.2726" y2="14.1211" gradientUnits="userSpaceOnUse">
<stop stop-color="white"/>
<stop offset="0.482" stop-color="#EFEEEC"/>
<stop offset="1" stop-color="#D7D7D7"/>
</linearGradient>
<linearGradient id="paint11_linear_117_72" x1="15.3959" y1="14.4018" x2="11.3998" y2="14.4023" gradientUnits="userSpaceOnUse">
<stop stop-color="#BFEBFF"/>
<stop offset="1" stop-color="#B9D7EA"/>
</linearGradient>
<linearGradient id="paint12_linear_117_72" x1="12.7032" y1="16.0969" x2="9.87899" y2="13.2727" gradientUnits="userSpaceOnUse">
<stop stop-color="#BFEBFF"/>
<stop offset="1" stop-color="#B9D7EA"/>
</linearGradient>
<linearGradient id="paint13_linear_117_72" x1="9.60169" y1="15.9639" x2="9.60176" y2="11.9698" gradientUnits="userSpaceOnUse">
<stop stop-color="white"/>
<stop offset="0.48" stop-color="#EFEEEC"/>
<stop offset="1" stop-color="#D7D7D7"/>
</linearGradient>
<linearGradient id="paint14_linear_117_72" x1="7.90321" y1="12.7033" x2="10.7274" y2="9.8791" gradientUnits="userSpaceOnUse">
<stop stop-color="#FFDBA7"/>
<stop offset="0.48" stop-color="#FFC674"/>
<stop offset="1" stop-color="#FFB956"/>
</linearGradient>
<linearGradient id="paint15_linear_117_72" x1="8.60565" y1="9.60444" x2="17.8869" y2="9.60428" gradientUnits="userSpaceOnUse">
<stop stop-color="#FFB64E"/>
<stop offset="0.48" stop-color="#FFAC36"/>
<stop offset="1" stop-color="#FFA420"/>
</linearGradient>
</defs>
</svg>
