<svg xmlns="http://www.w3.org/2000/svg" xmlns:xlink="http://www.w3.org/1999/xlink" version="1.1" viewBox="9 9 38 38">
<defs>
<clipPath id="clip_0">
<path transform="matrix(1,0,0,-1,0,56)" d="M15.128 44C13.344 44 12.698 43.815 12.046 43.465 11.395 43.117 10.883 42.605 10.535 41.954 10.185 41.302 10 40.656 10 38.872V25.128C10 23.345 10.185 22.698 10.535 22.046 10.883 21.395 11.395 20.883 12.046 20.534 12.698 20.185 13.344 20 15.128 20H19.228L20.941 22H14.564C13.673 22 13.349 22.093 13.023 22.268 12.697 22.441 12.442 22.697 12.267 23.024 12.092 23.349 12 23.673 12 24.564V39.436C12 40.327 12.092 40.651 12.267 40.977 12.442 41.303 12.697 41.558 13.023 41.733 13.349 41.908 13.673 42 14.564 42H41.437C42.327 42 42.651 41.908 42.977 41.733 43.303 41.558 43.558 41.303 43.733 40.977 43.907 40.651 44 40.327 44 39.436V24.564C44 23.673 43.907 23.349 43.733 23.024 43.558 22.697 43.303 22.441 42.977 22.268 42.651 22.093 42.327 22 41.437 22H35.059L36.772 20H40.872C42.656 20 43.302 20.185 43.954 20.534 44.606 20.883 45.117 21.395 45.466 22.046 45.814 22.698 46 23.345 46 25.128V38.872C46 40.656 45.814 41.302 45.466 41.954 45.117 42.605 44.606 43.117 43.954 43.465 43.302 43.815 42.656 44 40.872 44ZM27.374 25.506 16.693 13.209C16.286 12.74 16.613 12 17.23 12H38.77C39.387 12 39.715 12.74 39.307 13.209L28.625 25.506C28.459 25.697 28.229 25.793 28 25.793 27.77 25.793 27.54 25.697 27.374 25.506"/>
</clipPath>
</defs>
<g id="layer_1" data-name="Layer 1">
<g clip-path="url(#clip_0)">
<path transform="matrix(1,0,0,-1,0,56)" d="M5 7H51V49H5Z" fill="white"/>
</g>
</g>
</svg>
