<svg xmlns="http://www.w3.org/2000/svg" xmlns:xlink="http://www.w3.org/1999/xlink" version="1.1" viewBox="9 9 38 38">
<defs>
<clipPath id="clip_0">
<path transform="matrix(1,0,0,-1,0,56)" d="M27.374 23.506 16.693 11.209C16.286 10.74 16.613 10 17.23 10H38.77C39.387 10 39.715 10.74 39.307 11.209L28.625 23.506C28.459 23.697 28.229 23.793 28 23.793 27.77 23.793 27.54 23.697 27.374 23.506"/>
</clipPath>
<clipPath id="clip_1">
<path transform="matrix(1,0,0,-1,0,56)" d="M10 28C10 22.461 12.507 17.51 16.443 14.208 16.465 14.19 16.491 14.169 16.521 14.143 16.606 14.074 16.729 14.085 16.8 14.168 16.826 14.197 16.846 14.222 16.863 14.242 17.262 14.706 17.567 15.063 17.78 15.313 17.798 15.332 17.819 15.357 17.842 15.385 17.915 15.468 17.905 15.594 17.821 15.667 17.82 15.667 17.819 15.668 17.818 15.669 17.777 15.703 17.743 15.731 17.715 15.755 14.224 18.689 12 23.082 12 28 12 36.837 19.163 44 28 44 36.837 44 44 36.837 44 28 44 23.04 41.738 18.613 38.195 15.679 38.181 15.667 38.165 15.654 38.145 15.637H38.144C38.08 15.585 38.07 15.49 38.123 15.426 38.124 15.425 38.124 15.424 38.125 15.423 38.142 15.404 38.156 15.387 38.167 15.374 38.403 15.098 38.748 14.695 39.201 14.166 39.21 14.155 39.219 14.143 39.231 14.131 39.284 14.069 39.378 14.061 39.441 14.112 39.452 14.122 39.463 14.13 39.471 14.138 43.457 17.439 46 22.421 46 28 46 37.942 37.942 46 28 46 18.059 46 10 37.942 10 28M15 28C15 23.978 16.833 20.389 19.702 18.005 19.723 17.987 19.748 17.966 19.778 17.941H19.777C19.862 17.873 19.985 17.884 20.057 17.967 20.069 17.981 20.081 17.995 20.091 18.007 20.474 18.455 20.768 18.798 20.972 19.036 21.011 19.082 21.064 19.145 21.131 19.221 21.185 19.285 21.178 19.38 21.115 19.434 21.113 19.435 21.112 19.436 21.11 19.436 21.072 19.468 21.039 19.494 21.015 19.515 18.567 21.533 17 24.579 17 28 17 34.075 21.925 39 28 39 34.075 39 39 34.075 39 28 39 24.602 37.454 21.572 35.033 19.554 34.997 19.525 34.949 19.484 34.889 19.436 34.825 19.385 34.815 19.29 34.866 19.226 34.867 19.225 34.868 19.224 34.869 19.221 34.929 19.152 34.976 19.097 35.012 19.056 35.218 18.814 35.515 18.468 35.902 18.015 35.921 17.993 35.945 17.965 35.976 17.93H35.975C36.028 17.869 36.12 17.86 36.184 17.911 36.23 17.95 36.269 17.98 36.299 18.005 39.168 20.389 41 23.978 41 28 41 35.18 35.18 41 28 41 20.82 41 15 35.18 15 28M20 28C20 25.61 21.053 23.472 22.714 22.006 22.791 21.939 22.898 21.85 23.036 21.74 23.119 21.673 23.243 21.685 23.312 21.766 23.393 21.859 23.455 21.933 23.5 21.984 23.869 22.416 24.157 22.753 24.364 22.993 24.368 22.999 24.373 23.004 24.377 23.009 24.436 23.077 24.428 23.18 24.36 23.237 24.358 23.239 24.356 23.242 24.353 23.243 22.925 24.339 22 26.059 22 28 22 31.313 24.687 34 28 34 31.314 34 34 31.313 34 28 34 26.065 33.08 24.347 31.658 23.251 31.581 23.192 31.567 23.083 31.626 23.007 31.627 23.004 31.629 23.002 31.63 23 31.634 22.996 31.637 22.993 31.639 22.99 32.013 22.555 32.298 22.222 32.495 21.992 32.543 21.936 32.607 21.86 32.687 21.766 32.758 21.685 32.88 21.673 32.965 21.74 33.096 21.845 33.198 21.929 33.271 21.993 34.942 23.459 36 25.603 36 28 36 32.418 32.418 36 28 36 23.582 36 20 32.418 20 28"/>
</clipPath>
</defs>
<g id="layer_1" data-name="Layer 1">
<g clip-path="url(#clip_0)">
<path transform="matrix(1,0,0,-1,0,56)" d="M11.513 5H44.488V28.793H11.513Z"  fill="white"/>
</g>
<g clip-path="url(#clip_1)">
<path transform="matrix(1,0,0,-1,0,56)" d="M5 9.078H51V51H5Z"  fill="white"/>
</g>
</g>
</svg>
