<?xml version="1.0" encoding="UTF-8"?>
<svg version="1.1" xmlns="http://www.w3.org/2000/svg" width="48" height="48">
<path d="M0 0 C3.96 1.98 3.96 1.98 8 4 C5.16671013 6.83328987 3.64553172 7.7191375 0 9 C0 6.03 0 3.06 0 0 Z " fill="#1F69A0" transform="translate(14,7)"/>
<path d="M0 0 C0 2.64 0 5.28 0 8 C-3.35595828 7.40072174 -5.37801226 6.15377564 -8 4 C-1.125 0 -1.125 0 0 0 Z " fill="#1C679F" transform="translate(34,32)"/>
<path d="M0 0 C0 2.64 0 5.28 0 8 C-2.64 6.68 -5.28 5.36 -8 4 C-3.375 0 -3.375 0 0 0 Z " fill="#77A4CE" transform="translate(34,8)"/>
<path d="M0 0 C4.75 1.875 4.75 1.875 7 3 C7 3.66 7 4.32 7 5 C2.61538462 8 2.61538462 8 0 8 C0 5.36 0 2.72 0 0 Z " fill="#19659E" transform="translate(14,20)"/>
<path d="M0 0 C3.465 1.98 3.465 1.98 7 4 C4.63707344 6.52588702 3.33537489 7.88820837 0 9 C0 6.03 0 3.06 0 0 Z " fill="#6E9ECB" transform="translate(25,38)"/>
<path d="M0 0 C0 2.97 0 5.94 0 9 C-3.465 7.02 -3.465 7.02 -7 5 C-2.16129032 0 -2.16129032 0 0 0 Z " fill="#6F9ECB" transform="translate(23,38)"/>
<path d="M0 0 C3.465 1.485 3.465 1.485 7 3 C7 3.66 7 4.32 7 5 C2.61538462 8 2.61538462 8 0 8 C0 5.36 0 2.72 0 0 Z " fill="#6D9DCA" transform="translate(25,26)"/>
<path d="M0 0 C0 2.64 0 5.28 0 8 C-4.75 6.125 -4.75 6.125 -7 5 C-7 4.34 -7 3.68 -7 3 C-1.125 0 -1.125 0 0 0 Z " fill="#6D9DCA" transform="translate(23,26)"/>
<path d="M0 0 C4.75 1.875 4.75 1.875 7 3 C7 3.66 7 4.32 7 5 C3.535 6.485 3.535 6.485 0 8 C0 5.36 0 2.72 0 0 Z " fill="#6D9DCB" transform="translate(25,14)"/>
<path d="M0 0 C0 2.64 0 5.28 0 8 C-2.31 7.01 -4.62 6.02 -7 5 C-7 4.34 -7 3.68 -7 3 C-2.61538462 0 -2.61538462 0 0 0 Z " fill="#FBBB3A" transform="translate(23,14)"/>
<path d="M0 0 C3.465 1.98 3.465 1.98 7 4 C4.70572021 6.52370777 3.23475448 7.38262276 0 9 C0 6.03 0 3.06 0 0 Z " fill="#0D5D99" transform="translate(25,1)"/>
<path d="M0 0 C3.465 1.98 3.465 1.98 7 4 C2.25 8 2.25 8 0 8 C0 5.36 0 2.72 0 0 Z " fill="#FCBC3B" transform="translate(36,32)"/>
<path d="M0 0 C0 2.64 0 5.28 0 8 C-2.91517292 6.92598892 -4.77810176 6.22189824 -7 4 C-1.125 0 -1.125 0 0 0 Z " fill="#6E9ECB" transform="translate(12,32)"/>
<path d="M0 0 C0 2.64 0 5.28 0 8 C-2.91517292 6.92598892 -4.77810176 6.22189824 -7 4 C-1.125 0 -1.125 0 0 0 Z " fill="#12619B" transform="translate(44,26)"/>
<path d="M0 0 C5.875 2.75 5.875 2.75 7 5 C2.25 8 2.25 8 0 8 C0 5.36 0 2.72 0 0 Z " fill="#FBBC3E" transform="translate(4,26)"/>
<path d="M0 0 C0 2.64 0 5.28 0 8 C-2.31 7.01 -4.62 6.02 -7 5 C-7 4.34 -7 3.68 -7 3 C-1.125 0 -1.125 0 0 0 Z " fill="#105F9A" transform="translate(12,20)"/>
<path d="M0 0 C2.91517292 1.07401108 4.77810176 1.77810176 7 4 C4.69 5.32 2.38 6.64 0 8 C0 5.36 0 2.72 0 0 Z " fill="#0F5F9A" transform="translate(36,8)"/>
<path d="M0 0 C0 2.64 0 5.28 0 8 C-3.465 6.02 -3.465 6.02 -7 4 C-2.25 0 -2.25 0 0 0 Z " fill="#0F5F9A" transform="translate(12,8)"/>
<path d="M0 0 C2.91517292 1.07401108 4.77810176 1.77810176 7 4 C4.69 5.32 2.38 6.64 0 8 C0 5.36 0 2.72 0 0 Z " fill="#6D9DCB" transform="translate(4,14)"/>
<path d="M0 0 C0 2.64 0 5.28 0 8 C-3.465 6.02 -3.465 6.02 -7 4 C-2.25 0 -2.25 0 0 0 Z " fill="#0E5E99" transform="translate(44,14)"/>
</svg>
