<svg fill="none" height="20" viewBox="0 0 20 20" width="20" xmlns="http://www.w3.org/2000/svg"><g fill="#fff" opacity=".5"><path d="m9.52602 13.1455c.2609-.2636.68678-.2636.94768 0l5.3304 5.3856c.4166.421.1184 1.1356-.4739 1.1356h-10.66073c-.59228 0-.89047-.7146-.47383-1.1356z"/><path clip-rule="evenodd" d="m17.4228 16.0698c.014-.0231.0278-.0464.0413-.0698.1969-.341.3557-.8308.4436-1.8007.0904-.9975.0923-2.2933.0923-4.1993 0-1.90604-.0019-3.20185-.0923-4.19928-.0879-.96994-.2467-1.4597-.4436-1.80072-.3511-.60808-.856-1.11303-1.4641-1.4641-.341-.19689-.8308-.35567-1.8007-.44358-.9975-.0904-2.2933-.09232-4.1993-.09232-1.90604 0-3.20185.00192-4.19928.09232-.96994.08791-1.4597.24669-1.80072.44358-.60808.35107-1.11303.85602-1.4641 1.4641-.19689.34102-.35567.83078-.44358 1.80072-.0904.99743-.09232 2.29324-.09232 4.19928 0 1.906.00192 3.2018.09232 4.1993.08791.9699.24669 1.4597.44358 1.8007.01353.0234.02729.0467.04127.0698l-1.44296 1.4408c-.11836-.1641-.228667-.3345-.330363-.5106-.803847-1.3923-.803847-3.2615-.803847-7 0-3.73846 0-5.6077.803847-7 .526613-.91212 1.284033-1.66954 2.196153-2.196153 1.3923-.803847 3.26154-.803847 7-.803847 3.7385 0 5.6077 0 7 .803847.9121.526613 1.6695 1.284033 2.1962 2.196153.8038 1.3923.8038 3.26154.8038 7 0 3.7385 0 5.6077-.8038 7-.1017.1761-.212.3465-.3304.5106z" fill-rule="evenodd"/></g></svg>