<svg width="20" height="20" viewBox="0 0 20 20" fill="none" xmlns="http://www.w3.org/2000/svg">
<path d="M9.52651 13.1455C9.78741 12.8819 10.2133 12.8819 10.4742 13.1455L15.8046 18.5311C16.2212 18.9521 15.923 19.6668 15.3307 19.6668H4.66995C4.07767 19.6668 3.77948 18.9521 4.19613 18.5311L9.52651 13.1455Z" fill="white"/>
<path fill-rule="evenodd" clip-rule="evenodd" d="M17.4228 16.0698C17.4368 16.0467 17.4506 16.0234 17.4641 16C17.661 15.659 17.8198 15.1692 17.9077 14.1993C17.9981 13.2018 18 11.906 18 10C18 8.09396 17.9981 6.79815 17.9077 5.80072C17.8198 4.83078 17.661 4.34102 17.4641 4C17.113 3.39192 16.6081 2.88697 16 2.5359C15.659 2.33901 15.1692 2.18023 14.1993 2.09232C13.2018 2.00192 11.906 2 10 2C8.09396 2 6.79815 2.00192 5.80072 2.09232C4.83078 2.18023 4.34102 2.33901 4 2.5359C3.39192 2.88697 2.88697 3.39192 2.5359 4C2.33901 4.34102 2.18023 4.83078 2.09232 5.80072C2.00192 6.79815 2 8.09396 2 10C2 11.906 2.00192 13.2018 2.09232 14.1993C2.18023 15.1692 2.33901 15.659 2.5359 16C2.54943 16.0234 2.56319 16.0467 2.57717 16.0698L1.13421 17.5106C1.01585 17.3465 0.905543 17.1761 0.803847 17C0 15.6077 0 13.7385 0 10C0 6.26154 0 4.3923 0.803847 3C1.33046 2.08788 2.08788 1.33046 3 0.803847C4.3923 0 6.26154 0 10 0C13.7385 0 15.6077 0 17 0.803847C17.9121 1.33046 18.6695 2.08788 19.1962 3C20 4.3923 20 6.26154 20 10C20 13.7385 20 15.6077 19.1962 17C19.0945 17.1761 18.9842 17.3465 18.8658 17.5106L17.4228 16.0698Z" fill="white"/>
</svg>
