<svg xmlns="http://www.w3.org/2000/svg" fill="none" viewBox="0 0 100 100" >
<g>
    <circle cx="21" cy="21" r="21" fill="white" opacity='1' />
    <path d="M16.0254 23.7557L12.5325 25.9087C12.2224 26.0999 11.8332 26.1083 11.5151 25.9307C11.1971 25.7532 11 25.4174 11 25.0531L11 18.0208C11 17.6565 11.1971 17.3208 11.5151 17.1432C11.8331 16.9656 12.2224 16.9741 12.5324 17.1652L16.0254 19.3183M26.2182 15L18.8954 15C17.3095 15 16.0238 16.2857 16.0238 17.8717L16.0238 25.1944C16.0238 26.7804 17.3095 28.0661 18.8954 28.0661L26.2182 28.0661C27.8042 28.0661 29.0898 26.7804 29.0898 25.1944L29.0898 17.8717C29.0898 16.2857 27.8042 15 26.2182 15Z"
        stroke="black" strokeWidth="1.43583" strokeLinecap="round" strokeLinejoin="round" />

    <path d="M18.5 19.5V24M20.5 18V25M22.5 17V26M24.5 18V25M26.5 19.5V24"
        stroke="black" strokeWidth="1" strokeLinecap="round" strokeLinejoin="round"/>
</g>

</svg>