<svg width="20" height="20" viewBox="0 0 20 20" fill="none" xmlns="http://www.w3.org/2000/svg">
<path fill-rule="evenodd" clip-rule="evenodd" d="M8.57812 10.0002L12.1856 7.91683L8.57812 5.8335V10.0002Z" stroke="white" stroke-width="1.5" stroke-linecap="round" stroke-linejoin="round"/>
<path fill-rule="evenodd" clip-rule="evenodd" d="M16.5742 2.82422H3.42583C2.91417 2.82422 2.5 3.23839 2.5 3.75005V12.0834C2.5 12.5951 2.91417 13.0092 3.42583 13.0092H16.5742C17.0858 13.0092 17.5 12.5951 17.5 12.0834V3.75005C17.5 3.23839 17.0858 2.82422 16.5742 2.82422Z" stroke="white" stroke-width="1.5" stroke-linecap="round" stroke-linejoin="round"/>
<path d="M7.13388 15.7826C7.62204 16.2708 7.62204 17.0622 7.13388 17.5504C6.64573 18.0385 5.85427 18.0385 5.36612 17.5504C4.87796 17.0622 4.87796 16.2708 5.36612 15.7826C5.85427 15.2945 6.64572 15.2945 7.13388 15.7826" stroke="white" stroke-width="1.5" stroke-linecap="round" stroke-linejoin="round"/>
<path d="M17.5 16.6667H7.5" stroke="white" stroke-width="1.5" stroke-linecap="round" stroke-linejoin="round"/>
<path d="M2.5 16.6667H5" stroke="white" stroke-width="1.5" stroke-linecap="round" stroke-linejoin="round"/>
</svg>
