<svg width="20" height="20" viewBox="0 0 20 20" fill="none" xmlns="http://www.w3.org/2000/svg">
<path d="M10.0026 6.6665V11.6665" stroke="white" stroke-width="1.5" stroke-linecap="round" stroke-linejoin="round"/>
<path d="M11.1811 12.1547C11.832 12.8055 11.832 13.8608 11.1811 14.5117C10.5302 15.1626 9.47497 15.1626 8.82409 14.5117C8.17322 13.8608 8.17322 12.8055 8.82409 12.1547C9.47497 11.5038 10.5302 11.5038 11.1811 12.1547" stroke="white" stroke-width="1.5" stroke-linecap="round" stroke-linejoin="round"/>
<path fill-rule="evenodd" clip-rule="evenodd" d="M7.5026 10.0192V5C7.5026 3.61917 8.62177 2.5 10.0026 2.5C11.3834 2.5 12.5026 3.61917 12.5026 5V10.0192C13.5093 10.78 14.1693 11.975 14.1693 13.3333C14.1693 15.6342 12.3034 17.5 10.0026 17.5C7.70177 17.5 5.83594 15.6342 5.83594 13.3333C5.83594 11.975 6.49594 10.7792 7.5026 10.0192Z" stroke="white" stroke-width="1.5" stroke-linecap="round" stroke-linejoin="round"/>
</svg>
