<svg width="14" height="16" viewBox="0 0 14 16" fill="none" xmlns="http://www.w3.org/2000/svg">
<path d="M13.667 12.1667L13.667 13.8333L5.33366 13.8333L5.33366 12.1667L13.667 12.1667ZM3.66699 12.1667L3.66699 10.5L2.00033 10.5L2.00033 12.1667L0.333659 12.1667L0.333659 13.8333L2.00033 13.8333L2.00033 15.5L3.66699 15.5L3.66699 12.1667ZM8.66699 8.83333L8.66699 7.16667L0.333659 7.16667L0.333659 8.83333L8.66699 8.83333ZM7.00033 2.16667L7.00033 0.5L5.33366 0.5L5.33366 2.16667L0.333659 2.16667L0.333659 3.83333L5.33366 3.83333L5.33366 5.5L7.00033 5.5L7.00033 2.16667ZM13.667 8.83333L13.667 7.16667L12.0003 7.16667L12.0003 5.5L10.3337 5.5L10.3337 10.5L12.0003 10.5L12.0003 8.83333L13.667 8.83333ZM13.667 2.16667L13.667 3.83333L8.66699 3.83333L8.66699 2.16667L13.667 2.16667Z" fill="white"/>
</svg>
