<svg width="20" height="18" viewBox="0 0 20 18" fill="none" xmlns="http://www.w3.org/2000/svg">
<path d="M12.5 11.6584H7.5" stroke="white" stroke-width="1.5" stroke-linecap="round" stroke-linejoin="round"/>
<path fill-rule="evenodd" clip-rule="evenodd" d="M7.11745 11.4132C5.63745 10.3674 4.74995 8.54158 5.06245 6.53158C5.40078 4.35908 7.21161 2.62491 9.39578 2.36908C12.4274 2.01325 14.9999 4.37325 14.9999 7.33325C14.9999 9.02075 14.1616 10.5099 12.8808 11.4149C12.6508 11.5774 12.4999 11.8291 12.4999 12.1107V14.4166C12.4999 15.5674 11.5674 16.4999 10.4166 16.4999H9.58328C8.43245 16.4999 7.49995 15.5674 7.49995 14.4166V12.1141C7.49995 11.8299 7.34828 11.5766 7.11745 11.4132Z" stroke="white" stroke-width="1.5" stroke-linecap="round" stroke-linejoin="round"/>
<path d="M16.6719 3.16696L17.6635 2.17529" stroke="white" stroke-width="1.5" stroke-linecap="round" stroke-linejoin="round"/>
<path d="M3.33542 11.5L2.34375 12.4917" stroke="white" stroke-width="1.5" stroke-linecap="round" stroke-linejoin="round"/>
<path d="M4.17135 2.33346L3.17969 1.3418" stroke="white" stroke-width="1.5" stroke-linecap="round" stroke-linejoin="round"/>
<path d="M16.6719 11.5L17.6635 12.4917" stroke="white" stroke-width="1.5" stroke-linecap="round" stroke-linejoin="round"/>
<path d="M17.5 7.33366H18.9083" stroke="white" stroke-width="1.5" stroke-linecap="round" stroke-linejoin="round"/>
<path d="M1.09375 7.33366H2.50208" stroke="white" stroke-width="1.5" stroke-linecap="round" stroke-linejoin="round"/>
<path d="M7.5 14.0002H12.3917" stroke="white" stroke-width="1.5" stroke-linecap="round" stroke-linejoin="round"/>
</svg>
