<svg viewBox="0 0 24 24" fill="none" xmlns="http://www.w3.org/2000/svg"><path d="M14.998 3.011v7.994M8.996 4.782v14.226M21.002 12.005v-6.39a1 1 0 0 0-.685-.949l-4.686-1.562a2.006 2.006 0 0 0-1.265 0L9.629 4.681a1.999 1.999 0 0 1-1.266 0l-4.052-1.35a1 1 0 0 0-1.317.949v11.344c0 .379.214.725.553.895l4.555 2.277a1.998 1.998 0 0 0 1.79 0l1.106-.553" stroke="#fff" stroke-width="1.5" stroke-linecap="square" stroke-linejoin="round"/><rect x="14.382" y="16.159" width="6.231" height="4.846" rx=".2" fill="#fff"/><path d="m17.352 12.163-3.711 3.996-.33.356a.2.2 0 0 0 .146.336h8.082a.2.2 0 0 0 .147-.336l-4.041-4.352a.2.2 0 0 0-.293 0z" fill="#fff"/></svg>