<svg width="22" height="22" viewBox="0 0 22 22" fill="none" xmlns="http://www.w3.org/2000/svg">
<g clip-path="url(#clip0_796_7443)">
<path d="M11.2721 20.1667H11.1805C9.92328 20.1571 8.68064 19.8968 7.52531 19.401C6.36999 18.9052 5.3252 18.1838 4.45213 17.2792C2.83315 15.5479 1.91286 13.2782 1.86884 10.9083C1.82483 8.53835 2.66022 6.23611 4.2138 4.44587C5.21469 3.32418 6.47295 2.46227 7.88047 1.9342C8.0447 1.871 8.22365 1.85641 8.39595 1.89217C8.56825 1.92793 8.72661 2.01253 8.85213 2.13587C8.96838 2.25441 9.05025 2.4023 9.089 2.56375C9.12774 2.7252 9.12191 2.89414 9.07213 3.05253C8.56976 4.42839 8.47022 5.91899 8.78521 7.34943C9.1002 8.77986 9.81664 10.0908 10.8505 11.1284C11.8939 12.159 13.208 12.873 14.6404 13.1878C16.0729 13.5025 17.5652 13.405 18.9446 12.9067C19.1088 12.8489 19.2861 12.8391 19.4556 12.8783C19.6252 12.9175 19.7801 13.0042 19.9022 13.1283C20.0243 13.2523 20.1086 13.4085 20.1452 13.5787C20.1818 13.7489 20.1691 13.9259 20.1088 14.0892C19.6405 15.3393 18.909 16.4741 17.9638 17.4167C17.0846 18.2933 16.0408 18.9875 14.8924 19.4595C13.744 19.9314 12.5137 20.1717 11.2721 20.1667Z" fill="white"/>
</g>
<defs>
<clipPath id="clip0_796_7443">
<rect width="22" height="22" fill="white"/>
</clipPath>
</defs>
</svg>

