<svg viewBox="0 0 15 13" fill="none" xmlns="http://www.w3.org/2000/svg">
<path d="M7.41503 5.15068L8.31467 4.03311C9.01594 3.22009 10.0469 2.76189 11.1225 2.76189H12.7011L11.3433 1.39846L11.9356 0.806152L14.3048 3.17539L11.8909 5.56697L11.2986 4.97466L12.6592 3.61403H11.0806C10.2676 3.61403 9.47973 3.96606 8.92933 4.58072L8.02969 5.69828L7.41503 5.15068ZM4.84743 8.33294C4.27747 9.01186 3.46445 9.40859 2.56481 9.40859H0V10.2412H2.5676C3.70751 10.2412 4.76082 9.73548 5.46488 8.85819L6.25556 7.8915L5.61575 7.36625L4.84743 8.33294ZM11.2986 8.04796L12.6592 9.40859H11.0806C10.2033 9.40859 9.39032 9.01465 8.84272 8.35529L5.33077 3.98841C4.60715 3.22009 3.61811 2.78144 2.5676 2.78144H0V3.61403H2.5676C3.40019 3.61403 4.19086 3.96606 4.73847 4.58072L8.18335 8.83584C8.88463 9.73548 9.96028 10.2412 11.1002 10.2412H12.6788L11.2958 11.6018L11.8881 12.1941L14.2573 9.82488L11.8881 7.45565L11.2986 8.04796Z" fill="white"/>
</svg>
