<svg  fill="none" xmlns="http://www.w3.org/2000/svg"><g filter="url(#a)" fill="#fff"><path d="M8.4 10a1.6 1.6 0 1 0 3.2 0 1.6 1.6 0 0 0-3.2 0zm0 13a1.6 1.6 0 1 0 3.2 0 1.6 1.6 0 0 0-3.2 0zm1.3-13v13h.6V10h-.6z"/><path d="M15.4 10a1.6 1.6 0 1 0 3.2 0 1.6 1.6 0 0 0-3.2 0zm1.3 0v2.14h.6V10h-.6zm-3.301 6.627L9.91 17.713l.178.572 3.488-1.087-.178-.573zm3.301-4.488a4.7 4.7 0 0 1-3.301 4.488l.178.572a5.3 5.3 0 0 0 3.723-5.06h-.6z"/></g><defs><filter id="a" x=".4" y=".4" width="26.2" height="32.2" filterUnits="userSpaceOnUse" color-interpolation-filters="sRGB"><feFlood flood-opacity="0" result="BackgroundImageFix"/><feColorMatrix in="SourceAlpha" values="0 0 0 0 0 0 0 0 0 0 0 0 0 0 0 0 0 0 127 0" result="hardAlpha"/><feOffset/><feGaussianBlur stdDeviation="4"/><feComposite in2="hardAlpha" operator="out"/><feColorMatrix values="0 0 0 0 1 0 0 0 0 1 0 0 0 0 1 0 0 0 0.6 0"/><feBlend in2="BackgroundImageFix" result="effect1_dropShadow_1480_32278"/><feBlend in="SourceGraphic" in2="effect1_dropShadow_1480_32278" result="shape"/></filter></defs></svg>